<svg xmlns="http://www.w3.org/2000/svg" width="672" height="672" viewBox="0 0 672 672">
<defs><radialGradient id="f" cx="80%" cy="10%" r="95%"><stop offset="0%" stop-color="#fff" stop-opacity="1"></stop><stop offset="70%" stop-color="#fff" stop-opacity=".45"></stop><stop offset="100%" stop-color="#fff" stop-opacity="0"></stop></radialGradient>
<mask id="m"><rect width="672" height="672" fill="url(#f)"></rect></mask></defs>
<g mask="url(#m)"><line x1="0" y1="0" x2="0" y2="672" stroke="rgba(244,237,223,0.09)" stroke-width="1"></line><line x1="0" y1="0" x2="672" y2="0" stroke="rgba(244,237,223,0.09)" stroke-width="1"></line><line x1="56" y1="0" x2="56" y2="672" stroke="rgba(244,237,223,0.09)" stroke-width="1"></line><line x1="0" y1="56" x2="672" y2="56" stroke="rgba(244,237,223,0.09)" stroke-width="1"></line><line x1="112" y1="0" x2="112" y2="672" stroke="rgba(244,237,223,0.09)" stroke-width="1"></line><line x1="0" y1="112" x2="672" y2="112" stroke="rgba(244,237,223,0.09)" stroke-width="1"></line><line x1="168" y1="0" x2="168" y2="672" stroke="rgba(244,237,223,0.09)" stroke-width="1"></line><line x1="0" y1="168" x2="672" y2="168" stroke="rgba(244,237,223,0.09)" stroke-width="1"></line><line x1="224" y1="0" x2="224" y2="672" stroke="rgba(244,237,223,0.09)" stroke-width="1"></line><line x1="0" y1="224" x2="672" y2="224" stroke="rgba(244,237,223,0.09)" stroke-width="1"></line><line x1="280" y1="0" x2="280" y2="672" stroke="rgba(244,237,223,0.09)" stroke-width="1"></line><line x1="0" y1="280" x2="672" y2="280" stroke="rgba(244,237,223,0.09)" stroke-width="1"></line><line x1="336" y1="0" x2="336" y2="672" stroke="rgba(244,237,223,0.09)" stroke-width="1"></line><line x1="0" y1="336" x2="672" y2="336" stroke="rgba(244,237,223,0.09)" stroke-width="1"></line><line x1="392" y1="0" x2="392" y2="672" stroke="rgba(244,237,223,0.09)" stroke-width="1"></line><line x1="0" y1="392" x2="672" y2="392" stroke="rgba(244,237,223,0.09)" stroke-width="1"></line><line x1="448" y1="0" x2="448" y2="672" stroke="rgba(244,237,223,0.09)" stroke-width="1"></line><line x1="0" y1="448" x2="672" y2="448" stroke="rgba(244,237,223,0.09)" stroke-width="1"></line><line x1="504" y1="0" x2="504" y2="672" stroke="rgba(244,237,223,0.09)" stroke-width="1"></line><line x1="0" y1="504" x2="672" y2="504" stroke="rgba(244,237,223,0.09)" stroke-width="1"></line><line x1="560" y1="0" x2="560" y2="672" stroke="rgba(244,237,223,0.09)" stroke-width="1"></line><line x1="0" y1="560" x2="672" y2="560" stroke="rgba(244,237,223,0.09)" stroke-width="1"></line><line x1="616" y1="0" x2="616" y2="672" stroke="rgba(244,237,223,0.09)" stroke-width="1"></line><line x1="0" y1="616" x2="672" y2="616" stroke="rgba(244,237,223,0.09)" stroke-width="1"></line><line x1="672" y1="0" x2="672" y2="672" stroke="rgba(244,237,223,0.09)" stroke-width="1"></line><line x1="0" y1="672" x2="672" y2="672" stroke="rgba(244,237,223,0.09)" stroke-width="1"></line><rect x="16.8" y="16.8" width="22.400000000000002" height="22.400000000000002" fill="rgba(244,237,223,0.10)"></rect><rect x="72.8" y="296.8" width="22.400000000000002" height="22.400000000000002" fill="rgba(244,237,223,0.10)"></rect><rect x="72.8" y="576.8" width="22.400000000000002" height="22.400000000000002" fill="rgba(107,187,174,0.30)"></rect><rect x="184.8" y="352.8" width="22.400000000000002" height="22.400000000000002" fill="rgba(244,237,223,0.10)"></rect><rect x="240.8" y="72.8" width="22.400000000000002" height="22.400000000000002" fill="rgba(244,237,223,0.10)"></rect><rect x="352.8" y="576.8" width="22.400000000000002" height="22.400000000000002" fill="rgba(107,187,174,0.30)"></rect><rect x="408.8" y="16.8" width="22.400000000000002" height="22.400000000000002" fill="rgba(244,237,223,0.10)"></rect><rect x="408.8" y="184.8" width="22.400000000000002" height="22.400000000000002" fill="rgba(244,237,223,0.10)"></rect><rect x="408.8" y="408.8" width="22.400000000000002" height="22.400000000000002" fill="rgba(107,187,174,0.30)"></rect><rect x="408.8" y="576.8" width="22.400000000000002" height="22.400000000000002" fill="rgba(107,187,174,0.30)"></rect><rect x="464.8" y="352.8" width="22.400000000000002" height="22.400000000000002" fill="rgba(244,237,223,0.10)"></rect><rect x="464.8" y="464.8" width="22.400000000000002" height="22.400000000000002" fill="rgba(244,237,223,0.10)"></rect><rect x="464.8" y="520.8" width="22.400000000000002" height="22.400000000000002" fill="rgba(244,237,223,0.10)"></rect><rect x="520.8" y="464.8" width="22.400000000000002" height="22.400000000000002" fill="rgba(107,187,174,0.30)"></rect><rect x="520.8" y="576.8" width="22.400000000000002" height="22.400000000000002" fill="rgba(244,237,223,0.10)"></rect><rect x="576.8" y="128.8" width="22.400000000000002" height="22.400000000000002" fill="rgba(244,237,223,0.10)"></rect><rect x="632.8" y="16.8" width="22.400000000000002" height="22.400000000000002" fill="rgba(244,237,223,0.10)"></rect><rect x="632.8" y="296.8" width="22.400000000000002" height="22.400000000000002" fill="rgba(244,237,223,0.10)"></rect><rect x="632.8" y="352.8" width="22.400000000000002" height="22.400000000000002" fill="rgba(107,187,174,0.30)"></rect><rect x="632.8" y="464.8" width="22.400000000000002" height="22.400000000000002" fill="rgba(107,187,174,0.30)"></rect><rect x="632.8" y="632.8" width="22.400000000000002" height="22.400000000000002" fill="rgba(244,237,223,0.10)"></rect></g></svg>